<mxfile host="app.diagrams.net" agent="Mozilla/5.0 (Windows NT 10.0; Win64; x64) AppleWebKit/537.36 (KHTML, like Gecko) Chrome/134.0.0.0 Safari/537.36" version="26.1.1">
  <diagram name="第 1 页" id="qILWe6m0W3AGY0ZXKmx1">
    <mxGraphModel dx="2261" dy="746" grid="1" gridSize="10" guides="1" tooltips="1" connect="1" arrows="1" fold="1" page="1" pageScale="1" pageWidth="827" pageHeight="1169" math="0" shadow="0">
      <root>
        <mxCell id="0" />
        <mxCell id="1" parent="0" />
        <mxCell id="YDBYRJXHsEnE77kCWDUA-1" value="4KB" style="rounded=0;whiteSpace=wrap;html=1;" vertex="1" parent="1">
          <mxGeometry x="310" y="150" width="290" height="50" as="geometry" />
        </mxCell>
        <mxCell id="YDBYRJXHsEnE77kCWDUA-2" value="4KB" style="rounded=0;whiteSpace=wrap;html=1;" vertex="1" parent="1">
          <mxGeometry x="310" y="200" width="290" height="50" as="geometry" />
        </mxCell>
        <mxCell id="YDBYRJXHsEnE77kCWDUA-3" value="4KB" style="rounded=0;whiteSpace=wrap;html=1;" vertex="1" parent="1">
          <mxGeometry x="310" y="450" width="290" height="50" as="geometry" />
        </mxCell>
        <mxCell id="YDBYRJXHsEnE77kCWDUA-4" value="4KB" style="rounded=0;whiteSpace=wrap;html=1;" vertex="1" parent="1">
          <mxGeometry x="310" y="500" width="290" height="50" as="geometry" />
        </mxCell>
        <mxCell id="YDBYRJXHsEnE77kCWDUA-6" value="....." style="rounded=0;whiteSpace=wrap;html=1;" vertex="1" parent="1">
          <mxGeometry x="310" y="300" width="290" height="50" as="geometry" />
        </mxCell>
        <mxCell id="YDBYRJXHsEnE77kCWDUA-7" value="....." style="rounded=0;whiteSpace=wrap;html=1;" vertex="1" parent="1">
          <mxGeometry x="310" y="250" width="290" height="50" as="geometry" />
        </mxCell>
        <mxCell id="YDBYRJXHsEnE77kCWDUA-8" value="....." style="rounded=0;whiteSpace=wrap;html=1;" vertex="1" parent="1">
          <mxGeometry x="310" y="350" width="290" height="50" as="geometry" />
        </mxCell>
        <mxCell id="YDBYRJXHsEnE77kCWDUA-9" value="....." style="rounded=0;whiteSpace=wrap;html=1;" vertex="1" parent="1">
          <mxGeometry x="310" y="400" width="290" height="50" as="geometry" />
        </mxCell>
        <mxCell id="YDBYRJXHsEnE77kCWDUA-10" value="" style="shape=curlyBracket;whiteSpace=wrap;html=1;rounded=1;labelPosition=left;verticalLabelPosition=middle;align=right;verticalAlign=middle;" vertex="1" parent="1">
          <mxGeometry x="260" y="170" width="20" height="350" as="geometry" />
        </mxCell>
        <mxCell id="YDBYRJXHsEnE77kCWDUA-11" value="" style="shape=curlyBracket;whiteSpace=wrap;html=1;rounded=1;flipH=1;labelPosition=right;verticalLabelPosition=middle;align=left;verticalAlign=middle;" vertex="1" parent="1">
          <mxGeometry x="640" y="170" width="20" height="350" as="geometry" />
        </mxCell>
        <mxCell id="YDBYRJXHsEnE77kCWDUA-12" value="4GB物理内存，占据存储空间1024*1024个页表项&lt;div&gt;每一个页表项是32bit，占据4Byte&lt;/div&gt;&lt;div&gt;那需要1024*1024*4Byte = 4MB存储自身&lt;br&gt;&lt;div&gt;&lt;br&gt;&lt;/div&gt;&lt;/div&gt;" style="text;html=1;align=center;verticalAlign=middle;whiteSpace=wrap;rounded=0;fontSize=16;" vertex="1" parent="1">
          <mxGeometry x="-140" y="180" width="380" height="335" as="geometry" />
        </mxCell>
        <mxCell id="YDBYRJXHsEnE77kCWDUA-13" value="指向4GB物理内存" style="text;html=1;align=center;verticalAlign=middle;whiteSpace=wrap;rounded=0;fontSize=16;" vertex="1" parent="1">
          <mxGeometry x="660" y="330" width="280" height="30" as="geometry" />
        </mxCell>
      </root>
    </mxGraphModel>
  </diagram>
</mxfile>
